<svg id="レイヤー_1" data-name="レイヤー 1" xmlns="http://www.w3.org/2000/svg" viewBox="0 0 128 128"><title>ruby-jp-maskicon</title><path d="M103.38,52.33c-7.24,0-12.12,5.15-12.12,13.76s4.88,13.68,12,13.68,12.13-5.22,12.13-13.68S110.57,52.33,103.38,52.33Z"/><path d="M-.29,0V128H128V0Zm33,24.63H62.87l-32.73,24Zm32.55,1.73V50.19H32.69Zm-35.54,0L27.17,50.19H6.52ZM6.29,53H27.61l33.51,59.71ZM78.93,85.6c0,8.26-2.85,12.8-10.77,12.8a18.49,18.49,0,0,1-2.93-.21v16.13L30.81,53H65.23V92.25a6.43,6.43,0,0,0,1.37.12c3.45,0,4.74-2,4.74-6.57v-39h7.59Zm-3.8-44.44c-2.57,0-4.47-1.56-4.47-4.07S72.56,33,75.13,33s4.54,1.49,4.54,4.06S77.57,41.16,75.13,41.16Zm30,45c-6.51,0-11.66-3.25-13.69-8.2V98.06H83.87V46.78h7.59v7.31c2-4.94,7.25-8.12,13.75-8.12C114.29,46,123,52.06,123,66.09S114.22,86.14,105.15,86.14Z"/></svg>