<svg id="レイヤー_1" data-name="レイヤー 1" xmlns="http://www.w3.org/2000/svg" viewBox="0 0 500 500"><defs><style>.cls-1{fill:#e2203c;}.cls-2{fill:#fff;}</style></defs><title>ruby-jp-&amp;gt;=256px white</title><polygon class="cls-1" points="23.6 196.75 23.6 196.69 24.13 196.15 23.57 196.72 24.48 197.71 23.6 196.75"/><polygon class="cls-1" points="23.6 196.75 23.6 196.69 24.13 196.15 23.57 196.72 24.48 197.71 23.6 196.75"/><path class="cls-2" d="M245.62,371.07l3.15-22.33a27.25,27.25,0,0,0,5.78.52c13.4,0,18.39-7.88,18.39-25.49V172.42h29.43V323c0,32.05-11,49.66-41.78,49.66A60.83,60.83,0,0,1,245.62,371.07Zm24.7-236.22c0-10,7.35-15.77,17.34-15.77,9.46,0,17.6,5.78,17.6,15.77,0,9.72-8.14,15.76-17.6,15.76C277.67,150.61,270.32,144.57,270.32,134.85Z"/><path class="cls-2" d="M321.55,172.42H351V200.8c7.89-19.18,28.12-31.53,53.34-31.53,35.21,0,68.85,23.65,68.85,78,0,54.13-33.9,77.78-69.11,77.78-25.22,0-45.19-12.61-53.08-31.8v78H321.55Zm122.19,74.89c0-33.11-18.66-53.34-46.51-53.34-28.12,0-47,20-47,53.34,0,33.11,18.91,53.08,46.5,53.08C424.82,300.39,443.74,280.16,443.74,247.31Z"/><polygon class="cls-2" points="244.14 86.51 120.57 86.51 110.19 184.61 244.14 86.51"/><polygon class="cls-2" points="103.76 188.06 114.1 90.27 19.19 188.06 103.76 188.06"/><polygon class="cls-2" points="111.63 194.09 249.25 439.29 249.25 194.09 111.63 194.09"/><polygon class="cls-2" points="104.71 194.09 18.43 194.09 240.35 435.76 104.71 194.09"/><polygon class="cls-2" points="115.7 188.06 249.25 188.06 249.25 90.25 115.7 188.06"/></svg>