<svg id="レイヤー_1" data-name="レイヤー 1" xmlns="http://www.w3.org/2000/svg" viewBox="0 0 128 128"><defs><style>.cls-1{fill:#fff;}</style></defs><title>ruby-jp-white-little</title><path class="cls-1" d="M62.59,99.22,63.46,93a7.31,7.31,0,0,0,1.61.15c3.71,0,5.09-2.19,5.09-7.07V44.17h8.16V85.9c0,8.88-3.06,13.76-11.58,13.76A16.91,16.91,0,0,1,62.59,99.22Zm6.84-65.46c0-2.77,2-4.37,4.81-4.37s4.88,1.6,4.88,4.37-2.26,4.37-4.88,4.37S69.43,36.45,69.43,33.76Z"/><path class="cls-1" d="M83.63,44.17h8.16V52c2.18-5.32,7.79-8.74,14.78-8.74,9.76,0,19.08,6.55,19.08,21.62s-9.4,21.56-19.15,21.56c-7,0-12.53-3.5-14.71-8.81V99.29H83.63Zm33.86,20.75c0-9.17-5.17-14.78-12.89-14.78s-13,5.54-13,14.78,5.24,14.71,12.89,14.71S117.49,74,117.49,64.92Z"/><polygon class="cls-1" points="23.15 50.84 0.24 50.84 59.17 115.02 23.15 50.84"/><polygon class="cls-1" points="0.49 47.84 22.68 47.84 25.4 22.18 0.49 47.84"/><polygon class="cls-1" points="61.06 20.36 28.61 20.36 25.88 46.13 61.06 20.36"/><polygon class="cls-1" points="26.59 50.84 63.6 116.77 63.6 50.84 26.59 50.84"/><polygon class="cls-1" points="28.62 47.84 63.6 47.84 63.6 22.22 28.62 47.84"/></svg>