<?xml version="1.0" encoding="utf-8"?>
<svg version="1.1" xmlns="http://www.w3.org/2000/svg" xmlns:xlink="http://www.w3.org/1999/xlink" x="0px" y="0px" viewBox="0 0 500 500" style="enable-background:new 0 0 500 500;" xml:space="preserve">
<style type="text/css">.st0{fill:#FFFFFF;}</style>
<title>ruby-jp-white-big</title>
<g>
	<polygon class="st0" points="23.6,196.7 24.1,196.1 23.6,196.7 24.5,197.7 23.6,196.8 	"/>
	<path class="st0" d="M276.9,323.8c0,17.6-5,25.5-18.4,25.5c-1.8,0-3.6-0.1-5.3-0.4V194.1H115.6l137.6,245.2v-67.5
		c3.7,0.6,7.5,0.9,11.3,0.9c30.8,0,41.8-17.6,41.8-49.7V172.4h-29.4V323.8z"/>
	<path class="st0" d="M291.7,119.1c-10,0-17.3,5.8-17.3,15.8c0,9.7,7.4,15.8,17.3,15.8c9.5,0,17.6-6,17.6-15.8
		C309.3,124.9,301.1,119.1,291.7,119.1z"/>
	<path class="st0" d="M408.3,169.3c-25.2,0-45.5,12.3-53.3,31.5v-28.4h-29.5v198.8H355v-78c7.9,19.2,27.9,31.8,53.1,31.8
		c35.2,0,69.1-23.7,69.1-77.8C477.2,192.9,443.5,169.3,408.3,169.3z M400.7,300.4c-27.6,0-46.5-20-46.5-53.1
		c0-33.3,18.9-53.3,47-53.3c27.9,0,46.5,20.2,46.5,53.3C447.7,280.2,428.8,300.4,400.7,300.4z"/>
	<polygon class="st0" points="248.1,86.5 124.6,86.5 114.2,184.6"/>
	<polygon class="st0" points="118.1,90.3 23.2,188.1 107.8,188.1"/>
	<polygon class="st0" points="22.4,194.1 244.4,435.8 108.7,194.1"/>
	<polygon class="st0" points="253.2,188.1 253.2,90.2 119.7,188.1"/>
</g>
</svg>
